<svg width="86" height="80" viewBox="0 0 86 80" fill="none" xmlns="http://www.w3.org/2000/svg">
<path opacity="0.4" d="M85.5116 70.3125C85.5116 74.9724 69.2819 78.75 49.2616 78.75C29.2413 78.75 13.0116 74.9724 13.0116 70.3125C13.0116 65.6526 29.2413 61.875 49.2616 61.875C69.2819 61.875 85.5116 65.6526 85.5116 70.3125Z" fill="black"/>
<path d="M50.495 25.1907C50.495 22.8569 52.1077 20.806 54.4216 20.5027C55.3151 20.3855 56.2323 20.3011 57.02 20.3011C57.564 20.3011 58.1698 20.3414 58.7868 20.4049C61.711 20.7057 63.9337 23.0466 64.3938 25.95C64.8602 28.8933 65.345 32.66 65.345 35.6011C65.345 39.105 64.657 43.7805 64.1317 46.8396C63.8 48.7711 62.3204 50.2969 60.3829 50.5912C59.2655 50.761 58.0352 50.9011 57.02 50.9011C56.2323 50.9011 55.3151 50.8167 54.4216 50.6996C52.1077 50.3963 50.495 48.3454 50.495 46.0116V25.1907Z" fill="#84BF08"/>
<path fill-rule="evenodd" clip-rule="evenodd" d="M47.995 46.0117V25.1907C47.995 21.7474 50.3992 18.5086 54.0967 18.0239C55.0385 17.9005 56.0768 17.8012 57.02 17.8012C57.6778 17.8012 58.3745 17.8493 59.0427 17.9181C63.2211 18.348 66.2463 21.6668 66.863 25.5588C67.3326 28.5225 67.845 32.452 67.845 35.6012C67.845 39.3376 67.1219 44.1978 66.5956 47.2627C66.0917 50.197 63.8183 52.5982 60.7583 53.0629C59.6013 53.2387 58.2245 53.4012 57.02 53.4012C56.0768 53.4012 55.0385 53.3019 54.0967 53.1785C50.3992 52.6938 47.995 49.455 47.995 46.0117ZM54.4216 20.5027C52.1077 20.806 50.495 22.857 50.495 25.1907V46.0117C50.495 48.3454 52.1077 50.3964 54.4216 50.6997C55.3151 50.8168 56.2323 50.9012 57.02 50.9012C58.0352 50.9012 59.2655 50.761 60.3829 50.5913C62.3204 50.297 63.8 48.7711 64.1317 46.8396C64.657 43.7805 65.345 39.105 65.345 35.6012C65.345 32.6601 64.8602 28.8934 64.3938 25.9501C63.9337 23.0467 61.711 20.7058 58.7868 20.4049C58.1698 20.3415 57.564 20.3012 57.02 20.3012C56.2323 20.3012 55.3151 20.3856 54.4216 20.5027Z" fill="black"/>
<path fill-rule="evenodd" clip-rule="evenodd" d="M50.495 45.5455V46.0117C50.495 48.3455 52.1077 50.3964 54.4216 50.6997C55.3151 50.8168 56.2323 50.9012 57.02 50.9012C58.0352 50.9012 59.2655 50.761 60.3829 50.5913C62.3204 50.297 63.8 48.7712 64.1317 46.8397C64.657 43.7805 65.345 39.105 65.345 35.6012C65.345 32.6601 64.8602 28.8934 64.3938 25.9501C64.2309 24.9221 63.8471 23.9647 63.2894 23.1433C63.7058 25.918 64.095 29.216 64.095 31.8512C64.095 35.355 63.407 40.0305 62.8817 43.0897C62.55 45.0212 61.0704 46.547 59.1329 46.8413C58.0155 47.011 56.7852 47.1512 55.77 47.1512C54.9823 47.1512 54.0651 47.0668 53.1716 46.9497C52.0981 46.809 51.1756 46.2922 50.495 45.5455Z" fill="#6B9B04"/>
<path fill-rule="evenodd" clip-rule="evenodd" d="M59.4628 22.3193C60.0372 21.9364 60.8133 22.0916 61.1963 22.666L60.1562 23.3594C61.1963 22.666 61.1966 22.6665 61.1969 22.6669L61.1975 22.6679L61.199 22.6702L61.2026 22.6756L61.2123 22.6905C61.2199 22.7022 61.2296 22.7173 61.2413 22.736C61.2647 22.7733 61.2961 22.8245 61.3343 22.8895C61.4108 23.0195 61.5147 23.2049 61.6366 23.4447C61.8805 23.9242 62.1966 24.6218 62.5098 25.53C63.1366 27.3479 63.7499 30.005 63.7499 33.4375C63.7499 34.1279 63.1903 34.6875 62.4999 34.6875C61.8096 34.6875 61.2499 34.1279 61.2499 33.4375C61.2499 30.3076 60.6914 27.9256 60.1464 26.345C59.8736 25.554 59.6038 24.9625 59.4082 24.5778C59.3104 24.3855 59.2312 24.2449 59.1795 24.157C59.1537 24.1131 59.1347 24.0824 59.1238 24.065L59.1135 24.0488M59.1133 24.0485C59.1133 24.0485 59.1133 24.0485 59.1133 24.0484C59.1128 24.0478 59.1128 24.0477 59.1132 24.0483L59.1142 24.0499L59.1151 24.0512L59.1156 24.0519" fill="#B1FB14"/>
<path d="M22.4882 23.35C22.4882 13.9059 29.6778 6.25 38.5467 6.25C47.4155 6.25 54.6052 13.9059 54.6052 23.35C54.6052 23.35 55.9761 32.6434 56.2955 38.65C56.9126 50.2513 54.6052 68.35 54.6052 68.35C54.6052 71.3323 52.3348 73.75 49.5341 73.75H46.1533C43.3526 73.75 41.0822 71.3323 41.0822 68.35V60.038C40.2563 60.1775 39.4095 60.25 38.5467 60.25C37.0841 60.25 35.6673 60.0418 34.3208 59.6517V66.55C34.3208 69.5323 33.7407 71.95 30.94 71.95H27.5593C23.756 71.95 22.6938 69.2744 22.4882 66.1C21.643 53.05 19.1075 51.7 19.1075 44.05C19.1075 36.4 22.4882 23.35 22.4882 23.35Z" fill="#B1FB14"/>
<path fill-rule="evenodd" clip-rule="evenodd" d="M54.6052 68.35C54.6052 71.3323 52.3348 73.75 49.5341 73.75H46.1533C43.3526 73.75 41.0822 71.3323 41.0822 68.35V60.038C40.2677 60.1756 39.4327 60.248 38.5822 60.25C38.5704 60.25 38.5585 60.25 38.5467 60.25C37.9636 60.25 37.3878 60.2169 36.8208 60.1524C35.9656 60.0551 35.1305 59.8863 34.3208 59.6517V66.55C34.3208 69.5323 33.7407 71.95 30.94 71.95H27.5593C23.756 71.95 22.6938 69.2744 22.4882 66.1C22.0403 59.184 21.1176 55.5541 20.3492 52.531C19.6677 49.8497 19.1075 47.6458 19.1075 44.05C19.1075 36.4 22.4882 23.35 22.4882 23.35C22.4882 13.9059 29.6778 6.25 38.5467 6.25C47.4155 6.25 54.6052 13.9059 54.6052 23.35C54.6052 23.35 55.9761 32.6434 56.2955 38.65C56.9126 50.2513 54.6052 68.35 54.6052 68.35ZM57.1043 23.163C57.0096 12.5715 48.8811 3.75 38.5467 3.75C28.2564 3.75 20.1533 12.4962 19.9907 23.0272C19.9699 23.1099 19.9451 23.2086 19.9168 23.3224C19.8222 23.7028 19.6878 24.2522 19.5268 24.9344C19.2051 26.2977 18.776 28.1965 18.3466 30.3402C17.4989 34.5714 16.6075 39.957 16.6075 44.05C16.6075 47.9635 17.2343 50.4273 17.9209 53.126C17.9661 53.3038 18.0116 53.4825 18.0572 53.6628C18.7712 56.487 19.5834 59.9307 19.9934 66.2616C20.1059 67.9976 20.4642 70.0337 21.6452 71.6754C22.952 73.4919 24.9819 74.45 27.5593 74.45H30.94C32.0067 74.45 33.0388 74.2165 33.9512 73.6602C34.8661 73.1024 35.4934 72.3222 35.9108 71.4983C36.6901 69.96 36.8208 68.0969 36.8208 66.55V62.6662C37.3894 62.7217 37.9651 62.75 38.5467 62.75C38.5585 62.75 38.5704 62.75 38.5822 62.75V68.35C38.5822 72.5627 41.8263 76.25 46.1533 76.25H49.5341C53.8029 76.25 57.0176 72.6614 57.1034 68.5199L57.112 68.4508C57.1292 68.3122 57.1541 68.1088 57.1854 67.8465C57.2481 67.322 57.3368 66.5618 57.4411 65.6143C57.6495 63.7199 57.921 61.0727 58.173 58.0588C58.6745 52.0633 59.1101 44.497 58.792 38.5172C58.6273 35.4213 58.1954 31.5238 57.8114 28.4387C57.6184 26.8879 57.4355 25.527 57.3008 24.5534C57.2334 24.0664 57.178 23.6758 57.1394 23.4063C57.1255 23.3091 57.1137 23.2276 57.1043 23.163Z" fill="black"/>
<path fill-rule="evenodd" clip-rule="evenodd" d="M22.5279 22.1385C22.5016 22.5387 22.4882 22.9427 22.4882 23.35C22.4882 23.35 21.502 27.1568 20.5949 31.8636C21.7033 33.7363 23.6936 35.0724 26.0967 35.2004L38.37 35.8538C42.0816 36.0513 45.4514 33.6975 46.5433 30.1447C48.0913 25.1076 44.4934 19.9568 39.2312 19.6767L30.2568 19.1989C27.3049 19.0418 24.5245 20.1642 22.5279 22.1385Z" fill="#84BF08"/>
<path fill-rule="evenodd" clip-rule="evenodd" d="M23.0963 69.1481C23.7687 70.8158 25.083 71.95 27.5593 71.95H30.94C33.7407 71.95 34.3208 69.5323 34.3208 66.55V59.6517C35.6673 60.0418 37.0841 60.25 38.5467 60.25C38.5585 60.25 38.5704 60.25 38.5822 60.2499V57.538C37.7563 57.6775 36.9095 57.75 36.0467 57.75C34.5841 57.75 33.1673 57.5418 31.8208 57.1517V64.05C31.8208 67.0323 31.2407 69.45 28.44 69.45H25.0593C24.301 69.45 23.6516 69.3436 23.0963 69.1481ZM41.6357 70.8057C42.4753 72.5535 44.1831 73.75 46.1533 73.75H49.5341C52.3348 73.75 54.6052 71.3323 54.6052 68.35C54.6052 68.35 56.9126 50.2512 56.2955 38.65C55.9761 32.6434 54.6052 23.35 54.6052 23.35C54.6052 17.7762 52.1009 12.8253 48.2251 9.70349C50.6434 12.6968 52.1052 16.5916 52.1052 20.85C52.1052 20.85 53.4761 30.1434 53.7955 36.15C54.4126 47.7512 52.1052 65.85 52.1052 65.85C52.1052 68.8323 49.8348 71.25 47.0341 71.25H43.6533C42.9363 71.25 42.254 71.0915 41.6357 70.8057Z" fill="#85BF08"/>
<path fill-rule="evenodd" clip-rule="evenodd" d="M38.9213 8.4881C39.066 9.16313 38.636 9.82762 37.961 9.97227C33.1802 10.9967 30.0612 14.216 28.0838 17.9694C26.096 21.7423 25.3266 25.9491 25.2336 28.637C25.2311 28.707 25.2228 28.7766 25.2088 28.8452C24.9121 30.29 24.4662 32.6204 24.0951 34.9037C23.7185 37.2206 23.4374 39.3822 23.4374 40.5469C23.4374 43.7165 23.6755 47.6445 25.1345 51.0731C25.4048 51.7083 25.109 52.4424 24.4738 52.7127C23.8385 52.983 23.1044 52.6872 22.8341 52.052C21.1681 48.1368 20.9374 43.7835 20.9374 40.5469C20.9374 39.149 21.2553 36.7924 21.6275 34.5026C21.9965 32.2319 22.4371 29.9216 22.739 28.444C22.8585 25.453 23.7025 20.922 25.872 16.8041C28.0778 12.6173 31.7179 8.75331 37.4371 7.52776C38.1122 7.38311 38.7767 7.81307 38.9213 8.4881Z" fill="#DDFF94"/>
<path d="M17.449 22.649C18.826 18.1683 23.0759 15.1997 27.7568 15.4489L36.7313 15.9267C41.9935 16.2068 45.5913 21.3576 44.0433 26.3947C42.9514 29.9475 39.5817 32.3014 35.8701 32.1038L23.5968 31.4504C19.1724 31.2149 16.1474 26.8841 17.449 22.649Z" fill="#54B0D7"/>
<path fill-rule="evenodd" clip-rule="evenodd" d="M27.8897 12.9525L36.8642 13.4302C43.7505 13.7968 48.4588 20.5374 46.433 27.1292C45.0041 31.7786 40.5943 34.8588 35.7372 34.6003L23.4639 33.9469C17.4154 33.6249 13.2799 27.7044 15.0593 21.9146C16.7733 16.3373 22.0632 12.6423 27.8897 12.9525ZM27.7568 15.4489C23.0759 15.1998 18.826 18.1683 17.449 22.6491C16.1474 26.8842 19.1724 31.2149 23.5968 31.4504L35.8701 32.1038C39.5817 32.3014 42.9514 29.9476 44.0433 26.3948C45.5913 21.3576 41.9935 16.2068 36.7313 15.9267L27.7568 15.4489Z" fill="black"/>
<path fill-rule="evenodd" clip-rule="evenodd" d="M18.0532 28.0421C19.1529 29.9523 21.1631 31.3208 23.5968 31.4504L35.8701 32.1038C39.5816 32.3014 42.9514 29.9476 44.0433 26.3947C45.081 23.0181 43.8063 19.5903 41.2679 17.613C42.4484 19.5118 42.8553 21.9009 42.1288 24.265C41.0369 27.8178 37.6671 30.1716 33.9556 29.974L21.6823 29.3206C20.3084 29.2475 19.0695 28.7795 18.0532 28.0421Z" fill="#4088A3"/>
<path d="M19.6093 20.3516C20.2804 18.3421 23.2178 16.4973 25.7399 16.5712C28.262 16.6451 28.2228 16.3388 32.9591 16.7827C37.6953 17.2266 39.077 19.7488 38.1255 22.5978C37.4544 24.6073 35.2564 25.6599 32.7343 25.586C30.2123 25.5121 28.2421 26.1329 24.7265 26.1329C21.2109 26.1329 18.6579 23.2006 19.6093 20.3516Z" fill="#71D8F9"/>
<path fill-rule="evenodd" clip-rule="evenodd" d="M22.8227 20.3225L22.3551 19.1633C21.7149 19.4216 21.4052 20.1499 21.6635 20.7902C21.9217 21.4302 22.6497 21.7398 23.2897 21.482L23.2881 21.4826C23.2871 21.4831 23.2877 21.4828 23.2881 21.4826L23.303 21.4769C23.3188 21.4709 23.3458 21.4608 23.3837 21.4474C23.4594 21.4204 23.578 21.38 23.7354 21.332C24.0506 21.2361 24.5188 21.1106 25.1066 21.0022C26.2854 20.7849 27.9232 20.6401 29.7637 20.9236C30.446 21.0288 31.0844 20.5609 31.1895 19.8785C31.2946 19.1962 30.8267 18.5579 30.1444 18.4528C27.9621 18.1166 26.0343 18.289 24.6532 18.5437C23.961 18.6713 23.4006 18.8207 23.0072 18.9405C22.8103 19.0004 22.6547 19.0531 22.5447 19.0923C22.4897 19.1119 22.446 19.1282 22.4143 19.1402L22.3756 19.1552L22.363 19.1601L22.3585 19.1619L22.3567 19.1627C22.3563 19.1628 22.3551 19.1633 22.8227 20.3225Z" fill="#EDFEFF"/>
<path fill-rule="evenodd" clip-rule="evenodd" d="M28.6069 58.8195C28.8999 58.1944 29.6441 57.9252 30.2692 58.2181C31.7533 58.9138 33.6429 59.2709 35.4982 59.4245C37.3368 59.5766 39.0513 59.5221 40.1319 59.4476C40.8206 59.4002 41.4174 59.92 41.4649 60.6087C41.5123 61.2975 40.9925 61.8943 40.3038 61.9417C39.1397 62.0219 37.2927 62.0815 35.292 61.916C33.3078 61.7517 31.0802 61.3592 29.2082 60.4818C28.5831 60.1888 28.3139 59.4446 28.6069 58.8195Z" fill="black"/>
<path fill-rule="evenodd" clip-rule="evenodd" d="M43.0606 56.1783C43.7474 56.2486 44.2472 56.8623 44.177 57.549C44.0626 58.6677 43.9245 60.4896 43.8843 62.2934C43.8431 64.1458 43.9111 65.8139 44.1441 66.7199C44.316 67.3885 43.9134 68.0699 43.2448 68.2418C42.5762 68.4138 41.8948 68.0111 41.7228 67.3425C41.3933 66.0611 41.3441 64.0703 41.3849 62.2378C41.4268 60.3567 41.57 58.4676 41.6899 57.2947C41.7602 56.6079 42.3739 56.1081 43.0606 56.1783Z" fill="#DDFF94"/>
</svg>
