<svg width="86" height="80" viewBox="0 0 86 80" fill="none" xmlns="http://www.w3.org/2000/svg">
<path opacity="0.4" d="M85.5116 70.3125C85.5116 74.9724 69.282 78.75 49.2616 78.75C29.2413 78.75 13.0116 74.9724 13.0116 70.3125C13.0116 65.6526 29.2413 61.875 49.2616 61.875C69.282 61.875 85.5116 65.6526 85.5116 70.3125Z" fill="black"/>
<path d="M50.4951 25.1907C50.4951 22.8569 52.1077 20.806 54.4217 20.5027C55.3151 20.3855 56.2323 20.3011 57.0201 20.3011C57.5641 20.3011 58.1698 20.3414 58.7869 20.4049C61.7111 20.7057 63.9338 23.0466 64.3939 25.95C64.8603 28.8933 65.3451 32.66 65.3451 35.6011C65.3451 39.105 64.657 43.7805 64.1317 46.8396C63.8001 48.7711 62.3205 50.2969 60.383 50.5912C59.2655 50.761 58.0353 50.9011 57.0201 50.9011C56.2323 50.9011 55.3151 50.8167 54.4217 50.6996C52.1077 50.3963 50.4951 48.3454 50.4951 46.0116V25.1907Z" fill="#740DC6"/>
<path fill-rule="evenodd" clip-rule="evenodd" d="M47.9951 46.0117V25.1907C47.9951 21.7474 50.3992 18.5086 54.0968 18.0239C55.0385 17.9005 56.0768 17.8012 57.0201 17.8012C57.6779 17.8012 58.3746 17.8493 59.0427 17.9181C63.2211 18.348 66.2463 21.6668 66.8631 25.5588C67.3327 28.5225 67.8451 32.452 67.8451 35.6012C67.8451 39.3376 67.122 44.1978 66.5957 47.2627C66.0918 50.197 63.8184 52.5982 60.7584 53.0629C59.6014 53.2387 58.2245 53.4012 57.0201 53.4012C56.0768 53.4012 55.0385 53.3019 54.0968 53.1785C50.3992 52.6938 47.9951 49.455 47.9951 46.0117ZM54.4217 20.5027C52.1077 20.806 50.4951 22.857 50.4951 25.1907V46.0117C50.4951 48.3454 52.1077 50.3964 54.4217 50.6997C55.3151 50.8168 56.2323 50.9012 57.0201 50.9012C58.0353 50.9012 59.2655 50.761 60.383 50.5913C62.3205 50.297 63.8001 48.7711 64.1317 46.8396C64.657 43.7805 65.3451 39.105 65.3451 35.6012C65.3451 32.6601 64.8603 28.8934 64.3939 25.9501C63.9338 23.0467 61.7111 20.7058 58.7869 20.4049C58.1698 20.3415 57.5641 20.3012 57.0201 20.3012C56.2323 20.3012 55.3151 20.3856 54.4217 20.5027Z" fill="black"/>
<path fill-rule="evenodd" clip-rule="evenodd" d="M50.4951 45.5455V46.0117C50.4951 48.3455 52.1077 50.3964 54.4217 50.6997C55.3151 50.8168 56.2323 50.9012 57.0201 50.9012C58.0353 50.9012 59.2655 50.761 60.383 50.5913C62.3205 50.297 63.8001 48.7712 64.1317 46.8397C64.657 43.7805 65.3451 39.105 65.3451 35.6012C65.3451 32.6601 64.8603 28.8934 64.3939 25.9501C64.231 24.9221 63.8471 23.9647 63.2894 23.1433C63.7059 25.918 64.0951 29.216 64.0951 31.8512C64.0951 35.355 63.407 40.0305 62.8817 43.0897C62.5501 45.0212 61.0705 46.547 59.133 46.8413C58.0155 47.011 56.7853 47.1512 55.7701 47.1512C54.9823 47.1512 54.0651 47.0668 53.1717 46.9497C52.0982 46.809 51.1757 46.2922 50.4951 45.5455Z" fill="#520490"/>
<path fill-rule="evenodd" clip-rule="evenodd" d="M59.4629 22.3193C60.0373 21.9364 60.8134 22.0916 61.1963 22.666L60.1563 23.3594C61.1963 22.666 61.1966 22.6665 61.1969 22.6669L61.1976 22.6679L61.1991 22.6702L61.2027 22.6756L61.2124 22.6905C61.2199 22.7022 61.2296 22.7173 61.2413 22.736C61.2647 22.7733 61.2961 22.8245 61.3344 22.8895C61.4109 23.0195 61.5148 23.2049 61.6367 23.4447C61.8805 23.9242 62.1967 24.6218 62.5098 25.53C63.1367 27.3479 63.75 30.005 63.75 33.4375C63.75 34.1279 63.1904 34.6875 62.5 34.6875C61.8097 34.6875 61.25 34.1279 61.25 33.4375C61.25 30.3076 60.6915 27.9256 60.1464 26.345C59.8737 25.554 59.6039 24.9625 59.4082 24.5778C59.3104 24.3855 59.2312 24.2449 59.1796 24.157C59.1537 24.1131 59.1348 24.0824 59.1238 24.065L59.1136 24.0488M59.1134 24.0485C59.1133 24.0485 59.1133 24.0485 59.1133 24.0484C59.1129 24.0478 59.1129 24.0477 59.1132 24.0483L59.1143 24.0499L59.1151 24.0512L59.1156 24.0519" fill="#9514FB"/>
<path d="M22.4883 23.35C22.4883 13.9059 29.6779 6.25 38.5468 6.25C47.4156 6.25 54.6052 13.9059 54.6052 23.35C54.6052 23.35 55.9761 32.6434 56.2956 38.65C56.9126 50.2513 54.6052 68.35 54.6052 68.35C54.6052 71.3323 52.3348 73.75 49.5341 73.75H46.1534C43.3527 73.75 41.0823 71.3323 41.0823 68.35V60.038C40.2564 60.1775 39.4095 60.25 38.5468 60.25C37.0842 60.25 35.6673 60.0418 34.3208 59.6517V66.55C34.3208 69.5323 33.7408 71.95 30.9401 71.95H27.5594C23.7561 71.95 22.6939 69.2744 22.4883 66.1C21.6431 53.05 19.1075 51.7 19.1075 44.05C19.1075 36.4 22.4883 23.35 22.4883 23.35Z" fill="#9514FB"/>
<path fill-rule="evenodd" clip-rule="evenodd" d="M54.6052 68.35C54.6052 71.3323 52.3348 73.75 49.5341 73.75H46.1534C43.3527 73.75 41.0823 71.3323 41.0823 68.35V60.038C40.2677 60.1756 39.4328 60.248 38.5823 60.25C38.5705 60.25 38.5586 60.25 38.5467 60.25C37.9637 60.25 37.3878 60.2169 36.8208 60.1524C35.9656 60.0551 35.1305 59.8863 34.3208 59.6517V66.55C34.3208 69.5323 33.7408 71.95 30.9401 71.95H27.5594C23.7561 71.95 22.6939 69.2744 22.4883 66.1C22.0404 59.184 21.1177 55.5541 20.3493 52.531C19.6677 49.8497 19.1075 47.6458 19.1075 44.05C19.1075 36.4 22.4883 23.35 22.4883 23.35C22.4883 13.9059 29.6779 6.25 38.5467 6.25C47.4156 6.25 54.6052 13.9059 54.6052 23.35C54.6052 23.35 55.9761 32.6434 56.2956 38.65C56.9126 50.2513 54.6052 68.35 54.6052 68.35ZM57.1044 23.163C57.0097 12.5715 48.8812 3.75 38.5467 3.75C28.2565 3.75 20.1534 12.4962 19.9908 23.0272C19.9699 23.1099 19.9452 23.2086 19.9169 23.3224C19.8223 23.7028 19.6879 24.2522 19.5269 24.9344C19.2051 26.2977 18.7761 28.1965 18.3466 30.3402C17.4989 34.5714 16.6075 39.957 16.6075 44.05C16.6075 47.9635 17.2344 50.4273 17.921 53.126C17.9662 53.3038 18.0117 53.4825 18.0572 53.6628C18.7713 56.487 19.5835 59.9307 19.9935 66.2616C20.1059 67.9976 20.4642 70.0337 21.6453 71.6754C22.9521 73.4919 24.9819 74.45 27.5594 74.45H30.9401C32.0068 74.45 33.0388 74.2165 33.9512 73.6602C34.8662 73.1024 35.4934 72.3222 35.9108 71.4983C36.6902 69.96 36.8208 68.0969 36.8208 66.55V62.6662C37.3894 62.7217 37.9652 62.75 38.5467 62.75C38.5586 62.75 38.5705 62.75 38.5823 62.75V68.35C38.5823 72.5627 41.8263 76.25 46.1534 76.25H49.5341C53.8029 76.25 57.0176 72.6614 57.1035 68.5199L57.1121 68.4508C57.1292 68.3122 57.1541 68.1088 57.1855 67.8465C57.2482 67.322 57.3368 66.5618 57.4411 65.6143C57.6496 63.7199 57.921 61.0727 58.1731 58.0588C58.6745 52.0633 59.1101 44.497 58.7921 38.5172C58.6274 35.4213 58.1955 31.5238 57.8115 28.4387C57.6184 26.8879 57.4355 25.527 57.3008 24.5534C57.2335 24.0664 57.1781 23.6758 57.1395 23.4063C57.1255 23.3091 57.1138 23.2276 57.1044 23.163Z" fill="black"/>
<path fill-rule="evenodd" clip-rule="evenodd" d="M22.5279 22.1385C22.5016 22.5387 22.4883 22.9427 22.4883 23.35C22.4883 23.35 21.5021 27.1568 20.595 31.8636C21.7034 33.7363 23.6937 35.0724 26.0968 35.2004L38.3701 35.8538C42.0817 36.0513 45.4514 33.6975 46.5433 30.1447C48.0913 25.1076 44.4935 19.9568 39.2313 19.6767L30.2568 19.1989C27.305 19.0418 24.5246 20.1642 22.5279 22.1385Z" fill="#740DC6"/>
<path fill-rule="evenodd" clip-rule="evenodd" d="M23.0964 69.1481C23.7688 70.8158 25.0831 71.95 27.5594 71.95H30.9401C33.7408 71.95 34.3208 69.5323 34.3208 66.55V59.6517C35.6673 60.0418 37.0842 60.25 38.5467 60.25C38.5586 60.25 38.5704 60.25 38.5823 60.2499V57.538C37.7564 57.6775 36.9095 57.75 36.0467 57.75C34.5842 57.75 33.1673 57.5418 31.8208 57.1517V64.05C31.8208 67.0323 31.2408 69.45 28.4401 69.45H25.0594C24.301 69.45 23.6517 69.3436 23.0964 69.1481ZM41.6358 70.8057C42.4754 72.5535 44.1832 73.75 46.1534 73.75H49.5341C52.3348 73.75 54.6052 71.3323 54.6052 68.35C54.6052 68.35 56.9126 50.2512 56.2956 38.65C55.9761 32.6434 54.6052 23.35 54.6052 23.35C54.6052 17.7762 52.1009 12.8253 48.2251 9.70349C50.6435 12.6968 52.1052 16.5916 52.1052 20.85C52.1052 20.85 53.4761 30.1434 53.7956 36.15C54.4126 47.7512 52.1052 65.85 52.1052 65.85C52.1052 68.8323 49.8348 71.25 47.0341 71.25H43.6534C42.9364 71.25 42.2541 71.0915 41.6358 70.8057Z" fill="#740DC6"/>
<path fill-rule="evenodd" clip-rule="evenodd" d="M38.9214 8.4881C39.066 9.16313 38.6361 9.82762 37.961 9.97227C33.1802 10.9967 30.0613 14.216 28.0839 17.9694C26.0961 21.7423 25.3267 25.9491 25.2336 28.637C25.2312 28.707 25.2229 28.7766 25.2088 28.8452C24.9121 30.29 24.4662 32.6204 24.0951 34.9037C23.7186 37.2206 23.4375 39.3822 23.4375 40.5469C23.4375 43.7165 23.6756 47.6445 25.1346 51.0731C25.4049 51.7083 25.1091 52.4424 24.4738 52.7127C23.8386 52.983 23.1045 52.6872 22.8342 52.052C21.1681 48.1368 20.9375 43.7835 20.9375 40.5469C20.9375 39.149 21.2554 36.7924 21.6275 34.5026C21.9966 32.2319 22.4372 29.9216 22.7391 28.444C22.8586 25.453 23.7025 20.922 25.8721 16.8041C28.0778 12.6173 31.718 8.75331 37.4372 7.52776C38.1122 7.38311 38.7767 7.81307 38.9214 8.4881Z" fill="#B558FF"/>
<path d="M17.449 22.649C18.8261 18.1683 23.076 15.1997 27.7569 15.4489L36.7314 15.9267C41.9935 16.2068 45.5914 21.3576 44.0434 26.3947C42.9515 29.9475 39.5817 32.3014 35.8702 32.1038L23.5969 31.4504C19.1725 31.2149 16.1475 26.8841 17.449 22.649Z" fill="#54B0D7"/>
<path fill-rule="evenodd" clip-rule="evenodd" d="M27.8898 12.9525L36.8642 13.4302C43.7505 13.7968 48.4589 20.5374 46.433 27.1292C45.0042 31.7786 40.5944 34.8588 35.7372 34.6003L23.4639 33.9469C17.4155 33.6249 13.28 27.7044 15.0593 21.9146C16.7734 16.3373 22.0633 12.6423 27.8898 12.9525ZM27.7569 15.4489C23.0759 15.1998 18.8261 18.1683 17.449 22.6491C16.1475 26.8842 19.1725 31.2149 23.5968 31.4504L35.8701 32.1038C39.5817 32.3014 42.9515 29.9476 44.0434 26.3948C45.5914 21.3576 41.9935 16.2068 36.7313 15.9267L27.7569 15.4489Z" fill="black"/>
<path fill-rule="evenodd" clip-rule="evenodd" d="M18.0533 28.0421C19.153 29.9523 21.1632 31.3208 23.5969 31.4504L35.8702 32.1038C39.5817 32.3014 42.9515 29.9476 44.0434 26.3947C45.0811 23.0181 43.8064 19.5903 41.268 17.613C42.4485 19.5118 42.8554 21.9009 42.1289 24.265C41.037 27.8178 37.6672 30.1716 33.9557 29.974L21.6824 29.3206C20.3085 29.2475 19.0696 28.7795 18.0533 28.0421Z" fill="#4088A3"/>
<path d="M19.6094 20.3516C20.2805 18.3421 23.2179 16.4973 25.74 16.5712C28.2621 16.6451 28.2229 16.3388 32.9591 16.7827C37.6953 17.2266 39.077 19.7488 38.1256 22.5978C37.4545 24.6073 35.2565 25.6599 32.7344 25.586C30.2123 25.5121 28.2422 26.1329 24.7266 26.1329C21.211 26.1329 18.6579 23.2006 19.6094 20.3516Z" fill="#71D8F9"/>
<path fill-rule="evenodd" clip-rule="evenodd" d="M22.8228 20.3225L22.3552 19.1633C21.7149 19.4216 21.4053 20.1499 21.6636 20.7902C21.9218 21.4302 22.6497 21.7398 23.2898 21.482L23.2882 21.4826C23.2871 21.4831 23.2878 21.4828 23.2882 21.4826L23.3031 21.4769C23.3188 21.4709 23.3459 21.4608 23.3837 21.4474C23.4594 21.4204 23.5781 21.38 23.7355 21.332C24.0507 21.2361 24.5189 21.1106 25.1066 21.0022C26.2855 20.7849 27.9233 20.6401 29.7638 20.9236C30.4461 21.0288 31.0844 20.5609 31.1895 19.8785C31.2947 19.1962 30.8267 18.5579 30.1444 18.4528C27.9622 18.1166 26.0344 18.289 24.6532 18.5437C23.961 18.6713 23.4006 18.8207 23.0073 18.9405C22.8104 19.0004 22.6548 19.0531 22.5448 19.0923C22.4897 19.1119 22.4461 19.1282 22.4143 19.1402L22.3756 19.1552L22.3631 19.1601L22.3586 19.1619L22.3567 19.1627C22.3563 19.1628 22.3552 19.1633 22.8228 20.3225Z" fill="#EDFEFF"/>
<path fill-rule="evenodd" clip-rule="evenodd" d="M28.6069 58.8195C28.8999 58.1944 29.6442 57.9252 30.2693 58.2181C31.7534 58.9138 33.643 59.2709 35.4982 59.4245C37.3368 59.5766 39.0513 59.5221 40.132 59.4476C40.8207 59.4002 41.4175 59.92 41.465 60.6087C41.5124 61.2975 40.9926 61.8943 40.3038 61.9417C39.1398 62.0219 37.2928 62.0815 35.292 61.916C33.3079 61.7517 31.0803 61.3592 29.2083 60.4818C28.5832 60.1888 28.314 59.4446 28.6069 58.8195Z" fill="black"/>
<path fill-rule="evenodd" clip-rule="evenodd" d="M43.0607 56.1783C43.7475 56.2486 44.2473 56.8623 44.177 57.549C44.0626 58.6677 43.9245 60.4896 43.8844 62.2934C43.8431 64.1458 43.9111 65.8139 44.1441 66.7199C44.3161 67.3885 43.9134 68.0699 43.2448 68.2418C42.5762 68.4138 41.8948 68.0111 41.7229 67.3425C41.3934 66.0611 41.3442 64.0703 41.385 62.2378C41.4269 60.3567 41.5701 58.4676 41.69 57.2947C41.7602 56.6079 42.3739 56.1081 43.0607 56.1783Z" fill="#B558FF"/>
</svg>
