<svg width="500" height="500" viewBox="0 0 500 500" fill="none" xmlns="http://www.w3.org/2000/svg">
<circle opacity="0.2" cx="13" cy="13" r="13" fill="white"/>
<path fill-rule="evenodd" clip-rule="evenodd" d="M10.3244 10.0833L12.8903 7.62438C13.5108 7.02975 14.4897 7.02975 15.1102 7.62438L17.676 10.0833H19.161C19.516 10.0833 19.7886 10.3977 19.7384 10.7492L18.8815 16.7475C18.7584 17.6096 18.02 18.25 17.1491 18.25H10.8513C9.98044 18.25 9.24208 17.6096 9.11892 16.7475L8.26201 10.7492C8.21181 10.3977 8.4845 10.0833 8.83949 10.0833H10.3244ZM13.4957 8.25612C13.7777 7.98583 14.2227 7.98583 14.5047 8.25612L16.4114 10.0833H11.5891L13.4957 8.25612ZM9.17578 10.9583L9.98512 16.6237C10.0467 17.0548 10.4159 17.375 10.8513 17.375H17.1491C17.5846 17.375 17.9538 17.0548 18.0153 16.6237L18.8247 10.9583H9.17578Z" fill="white"/>
<path fill-rule="evenodd" clip-rule="evenodd" d="M11.6669 12.5625C11.9086 12.5625 12.1044 12.7584 12.1044 13V15.3333C12.1044 15.575 11.9086 15.7708 11.6669 15.7708C11.4253 15.7708 11.2294 15.575 11.2294 15.3333V13C11.2294 12.7584 11.4253 12.5625 11.6669 12.5625Z" fill="white"/>
<path fill-rule="evenodd" clip-rule="evenodd" d="M14.0002 12.5625C14.2419 12.5625 14.4377 12.7584 14.4377 13V15.3333C14.4377 15.575 14.2419 15.7708 14.0002 15.7708C13.7586 15.7708 13.5627 15.575 13.5627 15.3333V13C13.5627 12.7584 13.7586 12.5625 14.0002 12.5625Z" fill="white"/>
<path fill-rule="evenodd" clip-rule="evenodd" d="M16.3336 12.5625C16.5752 12.5625 16.7711 12.7584 16.7711 13V15.3333C16.7711 15.575 16.5752 15.7708 16.3336 15.7708C16.0919 15.7708 15.8961 15.575 15.8961 15.3333V13C15.8961 12.7584 16.0919 12.5625 16.3336 12.5625Z" fill="white"/>
</svg>
