<svg width="500" height="500" viewBox="0 0 500 500" fill="none" xmlns="http://www.w3.org/2000/svg">
<path fill-rule="evenodd" clip-rule="evenodd" d="M15.8723 14.8116C17.1996 13.2436 18 11.2153 18 9C18 4.02944 13.9706 0 9 0C4.02944 0 0 4.02944 0 9C0 13.9706 4.02944 18 9 18C11.2153 18 13.2436 17.1996 14.8116 15.8723L17.4697 18.5303C17.7626 18.8232 18.2374 18.8232 18.5303 18.5303C18.8232 18.2374 18.8232 17.7626 18.5303 17.4697L15.8723 14.8116ZM16.5 9C16.5 13.1421 13.1421 16.5 9 16.5C4.85786 16.5 1.5 13.1421 1.5 9C1.5 4.85786 4.85786 1.5 9 1.5C13.1421 1.5 16.5 4.85786 16.5 9Z" fill="black"/>
<path fill-rule="evenodd" clip-rule="evenodd" d="M53.5458 4.97986L57.9444 0.764533C59.0081 -0.254843 60.6862 -0.254845 61.7499 0.764532L66.1485 4.97986H68.6942C69.3027 4.97986 69.7702 5.51885 69.6841 6.12128L68.2151 16.4041C68.004 17.8821 66.7382 18.9799 65.2453 18.9799H54.4491C52.9561 18.9799 51.6904 17.8821 51.4792 16.4041L50.0102 6.12128C49.9242 5.51885 50.3916 4.97986 51.0002 4.97986H53.5458ZM58.9823 1.84752C59.4658 1.38416 60.2285 1.38416 60.712 1.84751L63.9806 4.97986H55.7137L58.9823 1.84752ZM51.5767 6.47986L52.9641 16.192C53.0697 16.931 53.7026 17.4799 54.4491 17.4799H65.2453C65.9918 17.4799 66.6246 16.931 66.7302 16.192L68.1177 6.47986H51.5767Z" fill="black"/>
<path fill-rule="evenodd" clip-rule="evenodd" d="M55.8472 9.22986C56.2614 9.22986 56.5972 9.56564 56.5972 9.97986V13.9799C56.5972 14.3941 56.2614 14.7299 55.8472 14.7299C55.433 14.7299 55.0972 14.3941 55.0972 13.9799V9.97986C55.0972 9.56564 55.433 9.22986 55.8472 9.22986Z" fill="black"/>
<path fill-rule="evenodd" clip-rule="evenodd" d="M59.8472 9.22986C60.2614 9.22986 60.5972 9.56564 60.5972 9.97986V13.9799C60.5972 14.3941 60.2614 14.7299 59.8472 14.7299C59.433 14.7299 59.0972 14.3941 59.0972 13.9799V9.97986C59.0972 9.56564 59.433 9.22986 59.8472 9.22986Z" fill="black"/>
<path fill-rule="evenodd" clip-rule="evenodd" d="M63.8472 9.22986C64.2614 9.22986 64.5972 9.56564 64.5972 9.97986V13.9799C64.5972 14.3941 64.2614 14.7299 63.8472 14.7299C63.433 14.7299 63.0972 14.3941 63.0972 13.9799V9.97986C63.0972 9.56564 63.433 9.22986 63.8472 9.22986Z" fill="black"/>
<path fill-rule="evenodd" clip-rule="evenodd" d="M108.75 8.5C110.683 8.5 112.25 6.933 112.25 5C112.25 3.067 110.683 1.5 108.75 1.5C106.817 1.5 105.25 3.067 105.25 5C105.25 6.933 106.817 8.5 108.75 8.5ZM108.75 10C111.511 10 113.75 7.76142 113.75 5C113.75 2.23858 111.511 0 108.75 0C105.989 0 103.75 2.23858 103.75 5C103.75 7.76142 105.989 10 108.75 10Z" fill="black"/>
<path fill-rule="evenodd" clip-rule="evenodd" d="M105.75 13.75C103.403 13.75 101.5 15.6528 101.5 18V19C101.5 19.4142 101.164 19.75 100.75 19.75C100.336 19.75 100 19.4142 100 19V18C100 14.8244 102.574 12.25 105.75 12.25H111.75C114.926 12.25 117.5 14.8244 117.5 18V19C117.5 19.4142 117.164 19.75 116.75 19.75C116.336 19.75 116 19.4142 116 19V18C116 15.6528 114.097 13.75 111.75 13.75H105.75Z" fill="black"/>
</svg>
